PathFileType	4	(X/Y/Z)	walk-thru1-5-TP.trc
DataRate	CameraRate	NumFrames	NumMarkers	Units	OrigDataRate	OrigDataStartFrame	OrigNumFrames
120.00	120.00	       5	60	mm	120.00	436	       498
Frame#	Time	Top.Head			Front.Head			Rear.Head			Jaw			C7			R.Clavicle			L.Clavicle			R.Shoulder			L.Shoulder			R.Scapula			L.Scapula			R.Scap.Inf			R.Biceps.Lateral			R.Elbow			R.Elbow.Medial			R.Forearm			R.Ulna			R.Radius			R.Wrist			R.Thumb.M1			R.Thumb.M2			R.Thumb.M3			R.Finger3.M1			R.Finger3.M2			R.Finger3.M3			L.Biceps.Lateral			L.Elbow			L.Elbow.Medial			L.Forearm			L.Ulna			L.Radius			L.Wrist			L.Thumb.M1			L.Thumb.M2			L.Thumb.M3			L.Finger3.M1			L.Finger3.M2			L.Finger3.M3			V.Sacral			R.ASIS			L.ASIS			R.Thigh			R.Thigh.Front			R.Knee			R.Knee.Medial			R.Shank			R.Ankle			R.Ankle.Medial			R.Heel			R.Toe			R.MedFoot			L.Thigh			L.Knee			L.Knee.Medial			L.Shank			L.Ankle			L.Ankle.Medial			L.Heel			L.Toe			L.MedFoot			V_mid_ASIS			V_R_Knee_JC			V_L_Knee_JC			V_R_Elbow_JC			V_L_Elbow_JC			V_R_Ankle_JC			V_L_Ankle_JC			V_R_Wrist_JC			V_L_Wrist_JC			V_R_ScaTrpz_1stMC_JC			V_R_1stMC_1stPP_JC			V_R_1stPP_1stDP_JC			V_R_LunCap_3rdMC_JC			V_R_3rdMC_3rdPP_JC			V_R_3rdPP_3rdMP_JC			V_R_3rdMP_3rdDP_JC			V_L_ScaTrpz_1stMC_JC			V_L_1stMC_1stPP_JC			V_L_1stPP_1stDP_JC			V_L_LunCap_3rdMC_JC			V_L_3rdMC_3rdPP_JC			V_L_3rdPP_3rdMP_JC			V_L_3rdMP_3rdPP_JC			V_ROOT_JC			V_R_Hip_JC			V_L_Hip_JC			V_R_GlenHum_JC			V_L_GlenHum_JC			V_ForeHead_Ctr			V_Vertex			V_Sagit_Lambdoid_Suture			V_R_FrontoTemp			V_L_FrontoTemporal			V_R_ParietalOccip			V_L_ParietalOcciptal			V_R_Temporal			V_L_Temporal			V_mid_FrontRearHead			V_mid_RLGlenHumCtrs			V_C7_vert			V_C1_vert			V_Mid_Hip			
		X1	Y1	Z1	X2	Y2	Z2	X3	Y3	Z3	X4	Y4	Z4	X5	Y5	Z5	X6	Y6	Z6	X7	Y7	Z7	X8	Y8	Z8	X9	Y9	Z9	X10	Y10	Z10	X11	Y11	Z11	X12	Y12	Z12	X13	Y13	Z13	X14	Y14	Z14	X15	Y15	Z15	X16	Y16	Z16	X17	Y17	Z17	X18	Y18	Z18	X19	Y19	Z19	X20	Y20	Z20	X21	Y21	Z21	X22	Y22	Z22	X23	Y23	Z23	X24	Y24	Z24	X25	Y25	Z25	X26	Y26	Z26	X27	Y27	Z27	X28	Y28	Z28	X29	Y29	Z29	X30	Y30	Z30	X31	Y31	Z31	X32	Y32	Z32	X33	Y33	Z33	X34	Y34	Z34	X35	Y35	Z35	X36	Y36	Z36	X37	Y37	Z37	X38	Y38	Z38	X39	Y39	Z39	X40	Y40	Z40	X41	Y41	Z41	X42	Y42	Z42	X43	Y43	Z43	X44	Y44	Z44	X45	Y45	Z45	X46	Y46	Z46	X47	Y47	Z47	X48	Y48	Z48	X49	Y49	Z49	X50	Y50	Z50	X51	Y51	Z51	X52	Y52	Z52	X53	Y53	Z53	X54	Y54	Z54	X55	Y55	Z55	X56	Y56	Z56	X57	Y57	Z57	X58	Y58	Z58	X59	Y59	Z59	X60	Y60	Z60	

436	3.625	-1335.75439	29.68549	1756.90686	-1419.39795	43.31499	1623.40002	-1195.45447	18.06663	1698.87268	-1314.86426	36.11637	1461.94177	-1090.73511	31.25182	1573.60706	-1182.10010	148.92924	1489.57898	-1189.77209	-94.58208	1478.56689	-1130.65808	255.31380	1484.52808	-1140.09180	-199.36513	1482.83533	-1021.06018	125.85414	1485.74524	-1017.12604	-64.58630	1478.91956	-987.12360	129.10446	1395.33997	-1084.01477	285.74982	1347.12903	-1008.20447	309.70346	1168.79846	-1019.76196	215.79530	1159.81860	-1102.20435	316.39728	1100.78979	-1038.62793	314.08810	965.88531	-1152.29626	313.35403	934.62451	-1147.95313	359.31400	906.05377	-1174.33875	312.29828	892.41083	-1189.26172	288.18118	847.88647	-1196.98242	289.22830	796.41260	-1168.84167	372.80356	823.35986	-1145.65259	316.99564	769.75970	-1125.83093	269.83377	808.81201	-1074.09863	-225.44447	1343.10242	-996.27606	-238.27383	1179.70801	-993.84375	-141.95427	1152.68665	-1073.47412	-249.33202	1091.63062	-1000.17444	-273.05124	993.63550	-1094.54126	-266.78336	929.98822	-1064.77808	-306.40335	899.96112	-1112.71545	-272.13736	872.01056	-1129.00403	-249.58739	824.93506	-1132.36133	-250.92386	775.20776	-1078.52429	-323.81165	798.17603	-1078.49133	-291.19034	739.67810	-1078.94690	-230.77464	740.13452	-961.57611	34.25626	1120.91248	-1155.98596	218.74493	1057.37659	-1148.85034	-132.16882	1067.66602	-1179.78320	210.80063	684.88544	-1266.32483	119.63612	597.63098	-1228.41370	180.92963	533.56262	-1212.61804	71.54213	529.75928	-1243.40320	139.63435	315.69232	-1160.39294	175.11450	83.96490	-1175.64185	73.73532	105.49194	-1097.50757	128.46979	46.87309	-1332.18396	137.47504	40.58019	-1269.67920	100.68299	78.83484	-1129.63599	-147.87691	673.93005	-1127.13159	-142.85069	521.52753	-1129.96521	-34.90720	497.91116	-1017.35352	-104.64252	336.55872	-790.30676	-116.40450	200.14166	-850.75323	-29.96374	191.50249	-745.44928	-44.73032	201.68138	-890.45966	-105.37392	50.38168	-885.37683	-69.58577	121.21857																																																																																																																															
437	3.633	-1341.42505	29.78852	1756.87061	-1424.64929	44.91330	1623.88660	-1201.09155	19.67607	1699.07434	-1319.40771	36.78652	1463.18188	-1096.15332	30.97867	1573.91797	-1187.86304	150.44220	1490.41406	-1194.80078	-94.24908	1479.49792	-1135.82800	255.61928	1485.05701	-1145.39258	-197.91295	1483.12524	-1025.44275	126.22795	1487.06482	-1021.88367	-62.50590	1479.16980	-995.28607	129.36407	1394.92310	-1090.05200	287.28329	1347.14880	-1017.54138	313.71432	1168.12378	-1024.83411	214.77559	1158.90955	-1108.57629	315.74371	1100.45740	-1047.93262	315.31882	964.98938	-1160.42871	314.12759	933.98602	-1156.11365	358.78513	906.28540	-1182.46423	312.44144	891.17578	-1196.77112	290.51965	845.60303	-1203.82849	294.90408	794.05609	-1178.45764	378.24857	826.04822	-1154.30432	325.74649	770.24011	-1132.91467	278.79523	808.60083	-1077.90796	-224.32158	1343.68457	-1000.82477	-235.30347	1180.18311	-999.26270	-139.53987	1153.33350	-1076.58313	-246.55000	1092.35254	-1004.19342	-269.44910	994.29620	-1099.57300	-265.81122	931.42065	-1068.02441	-303.73447	900.41058	-1114.74792	-268.26434	871.75372	-1130.36853	-245.09354	825.57294	-1134.23792	-247.18820	775.58295	-1079.64453	-317.84207	798.94604	-1078.65674	-288.76642	739.71399	-1079.58899	-227.59132	741.76685	-967.69885	36.27055	1121.73462	-1161.30310	221.05658	1058.37341	-1154.38000	-131.47852	1067.80212	-1182.96082	211.43050	685.05255	-1268.03650	120.72128	597.11932	-1230.02222	181.90254	533.01068	-1214.83557	72.72727	529.35083	-1244.63733	139.81714	315.32141	-1160.53735	175.30322	83.96798	-1175.07153	74.16365	105.57330	-1097.42407	128.88115	46.66630	-1331.99036	137.57660	40.45281	-1270.02173	100.67986	78.63359	-1141.46814	-147.39146	675.66650	-1139.25452	-142.22351	522.08459	-1139.97705	-34.05919	498.86609	-1028.62378	-103.57389	337.81491	-799.10327	-116.88191	205.70988	-858.88110	-30.11209	195.26764	-754.49475	-45.27582	207.74844	-897.10449	-106.91519	53.99456	-893.35504	-69.32844	125.41219																																																																																																																															
438	3.642	-1347.63330	31.45560	1758.02478	-1430.56726	45.76933	1623.92920	-1207.06665	20.13190	1700.51453	-1324.94080	38.79490	1463.22766	-1100.52173	34.56741	1573.01953	-1193.43518	150.65131	1491.04614	-1199.98218	-92.80163	1479.92981	-1140.71643	254.94553	1485.91687	-1151.36572	-197.66225	1483.96509	-1030.77002	127.26257	1487.01318	-1027.60535	-59.20556	1478.28503	-997.30743	131.13826	1395.38806	-1095.68945	289.10245	1348.20044	-1025.56824	316.93811	1167.97119	-1034.44861	221.22433	1158.91492	-1116.94739	316.61078	1100.17688	-1055.46777	317.55063	966.36987	-1166.88293	313.56262	934.60699	-1166.76697	361.25089	907.80292	-1189.68201	313.12894	889.77039	-1202.91003	290.78513	842.58337	-1208.75146	299.67117	790.51294	-1188.06836	383.96271	827.97974	-1160.57153	334.38876	768.05457	-1141.22144	286.92926	808.26685	-1082.46887	-222.97900	1344.13733	-1004.24500	-234.06239	1182.07971	-1002.56482	-137.63327	1155.10022	-1079.82495	-244.63499	1093.20776	-1007.21948	-266.75592	995.49615	-1099.48267	-261.44656	930.13470	-1070.99829	-300.49188	900.25482	-1118.89917	-265.78943	873.29150	-1134.31177	-242.44481	826.26434	-1137.00537	-243.49561	775.38226	-1083.79089	-315.60776	798.42761	-1082.29773	-283.07532	740.29620	-1083.29810	-224.73679	740.99377	-972.53577	36.29165	1122.00513	-1165.89807	221.33086	1058.01611	-1159.59106	-130.76134	1068.82910	-1186.47375	212.93646	685.13959	-1271.24646	121.60285	597.19232	-1232.86084	183.28569	532.48059	-1217.04468	73.44626	529.50397	-1246.02563	140.20424	314.75549	-1160.67114	175.07341	83.87984	-1175.30334	73.54263	105.32114	-1097.52063	128.84929	47.08611	-1331.70752	137.72781	40.51525	-1270.14038	100.55959	78.54434	-1151.08862	-146.11876	676.61090	-1152.41211	-142.64186	522.85590	-1155.63025	-34.62411	501.71497	-1039.39539	-102.92650	339.67270	-808.60089	-116.73013	209.83037	-868.97614	-30.01823	199.29617	-763.44250	-44.33487	211.58890	-905.40680	-106.18050	58.07535	-901.08856	-70.05932	128.72339																																																																																																																															
439	3.650	-1353.43518	32.26025	1757.85034	-1436.38196	46.87064	1624.64075	-1212.58130	24.06612	1700.48108	-1330.66711	39.73457	1463.98596	-1107.09631	36.27140	1574.21484	-1199.43994	151.97377	1491.80994	-1205.28699	-92.10112	1480.51672	-1147.26086	257.65665	1485.92603	-1155.70959	-196.77025	1484.75208	-1038.49292	128.76706	1487.77197	-1032.49634	-59.43577	1480.09143	-1003.86298	134.35039	1395.95178	-1101.66455	290.43466	1346.74561	-1033.94104	317.23047	1168.37305	-1040.84387	222.07492	1157.46204	-1125.34814	316.59976	1100.53406	-1064.62976	319.63693	965.42206	-1174.89954	313.89487	933.24091	-1175.92920	360.87051	908.76263	-1198.65869	314.08908	888.36401	-1207.84570	294.21616	840.08459	-1213.71033	302.60587	788.71228	-1196.28052	386.68170	831.41956	-1165.80237	342.26706	769.56995	-1148.95129	294.98206	808.65338	-1085.25146	-219.86993	1345.40503	-1007.36005	-232.61359	1181.75916	-1006.26489	-136.12395	1155.79834	-1083.20996	-241.53107	1093.17249	-1010.33997	-264.79636	996.75824	-1100.88928	-258.46228	930.16272	-1075.07227	-299.06818	901.38715	-1122.71094	-263.22879	873.90973	-1133.39954	-239.02196	825.65051	-1138.99219	-240.41508	775.83575	-1083.95801	-311.62540	799.32965	-1081.44092	-279.86774	740.96753	-1083.47119	-221.84750	743.16492	-977.39093	37.09529	1123.30969	-1170.38831	222.37570	1059.38110	-1165.13342	-129.44044	1069.41760	-1188.84705	212.59531	685.11261	-1273.18127	122.59338	596.32312	-1234.95105	183.20551	532.50500	-1219.19824	74.22915	529.66345	-1246.97766	141.31865	314.73621	-1161.33569	175.31305	83.62967	-1178.41809	73.04861	105.76772	-1097.56824	128.30865	47.05133	-1331.70752	137.72781	40.51525	-1269.98743	100.36491	78.37495	-1161.34192	-146.24310	677.09985	-1164.21521	-141.35478	524.65485	-1164.01331	-32.27372	501.99826	-1051.03186	-101.63785	341.94464	-818.09796	-116.30341	213.96516	-877.69733	-29.91619	202.28923	-772.68530	-45.29798	215.25838	-914.36627	-106.68084	61.62813	-910.12445	-70.00690	132.39403																																																																																																																															
440	3.658	-1357.47998	33.71078	1757.01526	-1441.89185	47.98488	1624.48840	-1217.88721	23.71900	1701.07410	-1334.95789	40.22802	1464.31714	-1112.59668	35.92865	1574.87097	-1204.72046	153.19331	1492.01221	-1210.34680	-91.34736	1481.51624	-1153.67603	258.47302	1486.96375	-1160.19861	-194.61205	1485.74084	-1042.04163	129.31129	1486.75793	-1038.05481	-60.60846	1482.67883	-1010.12640	134.71265	1397.00232	-1109.18970	291.38193	1347.27576	-1039.69153	320.09219	1168.88416	-1043.08960	223.11380	1158.45203	-1132.76086	316.33615	1100.33521	-1073.23840	323.82104	966.34088	-1181.63403	314.72586	933.18866	-1184.80383	362.99295	910.10968	-1205.09424	315.24451	887.40735	-1212.95178	297.65765	837.32269	-1217.01550	308.22247	785.71948	-1204.13477	388.38239	832.86627	-1173.26904	349.81723	769.78558	-1152.20081	302.20676	808.67389	-1089.14905	-220.05478	1345.75269	-1010.77997	-229.06255	1182.73425	-1009.63147	-133.44873	1155.92163	-1087.25854	-240.12230	1093.40454	-1013.87714	-261.06473	996.95941	-1105.98389	-255.21564	930.30139	-1074.45068	-294.49448	901.51160	-1124.92859	-259.99472	873.37091	-1137.45190	-234.81578	825.75470	-1142.27075	-235.45981	775.82904	-1087.85681	-308.95709	799.26038	-1086.38391	-277.52103	741.44116	-1088.11938	-217.02145	742.96509	-983.16437	37.89295	1123.85486	-1175.49866	223.93765	1059.75732	-1170.07690	-128.64371	1069.53540	-1193.47473	213.78975	685.38989	-1274.99536	123.16276	596.05811	-1236.48193	183.11864	532.11353	-1222.47510	73.28582	530.33826	-1247.93640	141.43227	314.36929	-1162.26392	175.65692	83.49673	-1175.11768	74.43755	105.96513	-1097.56824	128.30865	47.05133	-1332.29211	137.39946	40.33866	-1270.10608	100.24467	78.28570	-1170.80664	-144.57385	678.63629	-1176.02051	-140.87019	525.45221	-1176.42957	-31.35946	504.18402	-1061.27039	-100.74963	342.86578	-828.70367	-116.59884	217.30177	-887.55127	-30.07080	204.42291	-782.85010	-45.10836	218.26555	-925.35132	-108.99333	65.56629	-920.86005	-69.56191	135.31990																																																																																																																															
